<?xml version="1.0" encoding="UTF-8"?>
<svg width="1920" height="400" viewBox="0 0 1920 400" fill="none" xmlns="http://www.w3.org/2000/svg">
  <!-- Background Mountains -->
  <path d="M0 400V280L160 200L320 280L480 180L640 280L800 220L960 300L1120 200L1280 280L1440 180L1600 260L1760 180L1920 280V400H0Z" fill="#0f2c1c"/>
  
  <!-- Middle Mountains -->
  <path d="M0 400V300L240 220L480 320L720 240L960 340L1200 260L1440 320L1680 240L1920 300V400H0Z" fill="#0d2116"/>
  
  <!-- Forest Layer -->
  <path d="M0 400V320C160 320 240 300 320 320C400 340 480 320 560 320C640 320 720 300 800 320C880 340 960 320 1040 320C1120 320 1200 300 1280 320C1360 340 1440 320 1520 320C1600 320 1680 300 1760 320C1840 340 1920 320 1920 320V400H0Z" fill="#071510"/>
  
  <!-- Small Trees -->
  <g>
    <path d="M200 320L220 280L240 320" stroke="#071510" stroke-width="2"/>
    <path d="M600 320L620 270L640 320" stroke="#071510" stroke-width="2"/>
    <path d="M1000 320L1020 275L1040 320" stroke="#071510" stroke-width="2"/>
    <path d="M1400 320L1420 280L1440 320" stroke="#071510" stroke-width="2"/>
    <path d="M1800 320L1820 275L1840 320" stroke="#071510" stroke-width="2"/>
  </g>

  <!-- Watchtower -->
  <g transform="translate(960, 280)">
    <rect x="-10" y="-40" width="20" height="40" fill="#071510"/>
    <rect x="-15" y="-50" width="30" height="10" fill="#071510"/>
    <path d="M-15 -50L0 -65L15 -50H-15Z" fill="#071510"/>
  </g>
</svg> 